<?xml version="1.0" standalone="no"?>
<!DOCTYPE svg PUBLIC "-//W3C//DTD SVG 20010904//EN"
 "http://www.w3.org/TR/2001/REC-SVG-20010904/DTD/svg10.dtd">
<svg version="1.0" xmlns="http://www.w3.org/2000/svg"
 width="1200.000000pt" height="1200.000000pt" viewBox="0 0 1200.000000 1200.000000"
 preserveAspectRatio="xMidYMid meet">
<metadata>
Created by potrace 1.11, written by Peter Selinger 2001-2013
</metadata>
<g transform="translate(0.000000,1200.000000) scale(0.100000,-0.100000)"
fill="#000000" stroke="none">
<path d="M5895 11533 c-180 -5 -447 -30 -580 -53 -27 -5 -81 -14 -120 -20 -38
-6 -86 -15 -105 -20 -19 -5 -57 -14 -85 -20 -80 -18 -168 -40 -195 -49 -14 -5
-45 -14 -70 -21 -53 -15 -130 -42 -400 -142 -175 -65 -564 -266 -710 -368 -14
-10 -42 -27 -63 -39 -37 -21 -361 -260 -402 -298 -273 -245 -319 -290 -479
-470 -145 -163 -352 -438 -424 -564 -11 -19 -48 -81 -84 -139 -35 -58 -81
-141 -102 -185 -100 -207 -164 -343 -175 -375 -7 -19 -17 -44 -21 -55 -4 -11
-13 -36 -20 -55 -7 -19 -16 -44 -20 -55 -24 -58 -72 -193 -80 -224 -5 -20 -13
-52 -19 -71 -92 -332 -140 -626 -162 -998 -22 -375 27 -707 168 -1141 29 -90
81 -230 94 -253 5 -10 9 -22 9 -28 0 -5 13 -38 29 -72 15 -35 43 -97 61 -138
45 -106 184 -384 257 -519 35 -62 63 -115 63 -116 0 -1 30 -51 66 -111 36 -60
107 -176 157 -259 142 -237 443 -684 615 -915 277 -371 374 -499 421 -556 14
-17 40 -48 56 -69 52 -66 125 -158 158 -199 18 -22 43 -54 57 -72 26 -34 270
-325 280 -334 3 -3 39 -45 80 -95 70 -85 159 -186 304 -350 35 -38 78 -88 97
-110 18 -22 63 -71 100 -110 36 -38 90 -97 120 -130 30 -33 61 -67 69 -75 8
-8 71 -76 140 -150 201 -217 256 -275 430 -455 298 -307 579 -585 592 -585 25
0 660 641 952 960 32 36 91 99 130 140 39 42 97 105 130 140 32 36 88 97 125
135 36 39 98 106 136 150 38 44 72 82 75 85 3 3 32 36 65 75 33 38 79 90 101
115 42 46 290 338 389 459 11 14 34 41 51 60 17 20 66 81 110 136 43 55 85
106 91 115 101 124 260 327 351 450 320 430 308 413 519 725 145 213 321 490
413 650 9 17 36 61 60 99 23 38 62 108 87 155 25 47 49 91 53 96 10 12 169
332 195 390 9 22 30 67 44 100 15 33 45 103 65 155 21 52 42 104 46 115 44
110 60 158 120 355 59 196 94 384 110 585 5 72 12 141 14 155 7 40 -13 392
-30 535 -14 126 -54 368 -74 450 -5 22 -12 54 -16 70 -28 128 -79 297 -134
445 -18 47 -35 96 -40 110 -42 132 -219 506 -296 627 -20 32 -45 72 -54 88
-105 181 -302 452 -439 605 -188 210 -223 245 -401 405 -154 139 -412 337
-545 419 -173 106 -323 193 -375 218 -30 14 -111 53 -180 85 -69 33 -141 66
-160 73 -19 6 -44 16 -55 20 -11 5 -78 30 -150 55 -71 26 -139 50 -150 55 -11
4 -38 13 -60 19 -22 6 -71 19 -110 30 -63 18 -139 36 -250 61 -64 14 -196 36
-360 59 -147 21 -490 39 -660 34z m465 -1123 c126 -15 305 -44 365 -58 135
-33 312 -84 385 -111 47 -18 105 -39 129 -47 67 -24 368 -171 417 -204 23 -17
45 -30 49 -30 12 0 204 -130 309 -209 96 -72 178 -143 322 -277 154 -144 378
-429 515 -656 83 -137 229 -426 229 -452 0 -6 4 -16 8 -22 4 -5 14 -27 21 -49
7 -22 28 -80 46 -130 42 -112 108 -384 130 -530 9 -60 21 -135 27 -165 6 -32
11 -184 11 -365 0 -181 -5 -333 -11 -365 -6 -30 -18 -104 -27 -165 -22 -146
-88 -418 -130 -530 -18 -49 -39 -108 -46 -130 -7 -22 -17 -44 -21 -49 -4 -6
-8 -15 -8 -22 0 -18 -144 -312 -194 -396 -99 -166 -131 -215 -223 -336 -191
-254 -402 -468 -633 -641 -63 -47 -123 -93 -132 -101 -9 -8 -85 -56 -170 -107
-165 -99 -374 -203 -509 -253 -46 -17 -102 -39 -124 -47 -111 -42 -402 -118
-519 -134 -44 -6 -106 -15 -136 -20 -30 -5 -142 -14 -249 -20 -194 -10 -495
-1 -621 20 -30 5 -91 14 -135 20 -117 15 -446 101 -540 141 -11 4 -63 24 -115
44 -214 80 -526 251 -713 389 -51 38 -105 78 -121 90 -73 54 -186 156 -301
272 -251 253 -460 542 -607 840 -93 187 -103 212 -153 350 -26 72 -50 139 -55
150 -5 11 -11 31 -13 45 -3 14 -21 86 -40 160 -19 74 -42 185 -51 245 -9 61
-21 135 -26 165 -9 57 -25 348 -21 410 11 220 22 375 30 420 5 30 14 91 20
135 7 44 28 141 48 215 19 74 37 146 40 160 2 14 8 34 13 45 5 11 30 79 55
150 65 179 171 403 262 550 31 50 69 111 85 136 44 71 199 272 275 357 37 41
83 93 102 114 104 119 452 402 610 498 41 25 95 58 120 73 64 39 377 192 431
210 25 9 83 30 130 47 153 57 392 119 530 139 47 7 112 17 145 22 162 28 591
33 785 9z"/>
<path d="M5883 9228 c-60 -46 -549 -413 -1086 -816 -537 -404 -977 -738 -977
-743 0 -5 107 -9 260 -9 l260 0 0 -1098 c0 -841 3 -1101 12 -1110 19 -19 1071
-17 1087 1 7 10 12 175 13 553 l3 539 550 0 550 0 5 -550 c3 -302 6 -551 8
-552 1 -2 247 -3 546 -3 487 0 544 2 550 16 3 9 6 508 6 1110 l0 1094 260 0
c143 0 260 4 260 8 0 5 -258 202 -572 438 -315 236 -580 434 -588 441 -18 14
-74 56 -235 176 -157 118 -266 199 -285 214 -223 171 -496 372 -506 373 -6 0
-60 -37 -121 -82z"/>
</g>
</svg>
